<?xml version="1.0" encoding="utf-8"?>
<!-- Generator: Adobe Illustrator 16.0.0, SVG Export Plug-In . SVG Version: 6.00 Build 0)  -->
<!DOCTYPE svg PUBLIC "-//W3C//DTD SVG 1.1//EN" "http://www.w3.org/Graphics/SVG/1.1/DTD/svg11.dtd">
<svg version="1.1" id="Layer_1" xmlns="http://www.w3.org/2000/svg" xmlns:xlink="http://www.w3.org/1999/xlink" x="0px" y="0px"
	 width="230.5px" height="215.5px" viewBox="0 0 230.5 215.5" enable-background="new 0 0 230.5 215.5" xml:space="preserve">
<g id="Layer_2">
</g>
<g id="Layer_1_1_">
	<g>
		<path fill="#FFFFFF" d="M83.622,66.611c0.021-0.07,0.149-0.147,0.149-0.147c0.066-0.129-0.364-0.622-0.364-0.622l0.091-0.094
			l-0.129-0.301c0.282-0.215,0.125-0.303,0.102-0.336c-0.022-0.008-0.08-0.043-0.08-0.043s-0.05,0-0.057-0.052
			c0-0.059-0.087-0.085-0.087-0.085s-0.072,0.155-0.015,0c0.066-0.14-0.211-0.14-0.211-0.14c-0.019,0.035-0.199,0.166-0.199,0.166
			c-0.079-0.147-0.324-0.251-0.324-0.251c0.017,0.077-0.107,0.104-0.107,0.104l-0.27-0.447l0.515-0.525l0.037-0.016
			c0.07,0.016,0.105-0.071,0.105-0.071c0.044-0.163,0.102-0.058,0.102-0.058c0.123,0.109,0.187,0.058,0.187,0.058
			c0.345-0.307,0.469-0.696,0.469-0.696c0.052-0.225-0.128-0.438-0.373-0.395c-0.129,0.007-0.685,0.413-0.685,0.413
			c-0.159,0.129,0,0.216,0.037,0.257c0.036,0.025-0.017,0.114-0.017,0.114c-0.078-0.046-0.107,0.127-0.107,0.127l-0.485,0.482
			l-0.853-0.999l0.585-0.566c0.12,0,0.16-0.139,0.16-0.139c0.021-0.052,0.078-0.052,0.078-0.052c0.286,0.273,0.129,0.07,0.395-0.232
			c0.271-0.319,0.432-0.24,0.432-0.24s0.172,0.085-0.138-0.389c-0.314-0.491-0.281,0.071-0.539,0.31
			c-0.12,0.12-0.597-0.025-0.375,0.251c0.064,0.085-0.16,0.052-0.193,0.085c-0.041,0.052-0.099,0.096-0.099,0.096
			c-0.018,0.041-0.546,0.595-0.546,0.595c0.021-0.027-0.425-0.664-0.425-0.664c-0.208-0.303-0.38-0.146-0.38-0.146l-6.48-7.298
			c0,0,4.21-4.243-1.373-7.823c0,0-1.63-0.62-1.777-1.568c0,0-0.155-0.12-0.216-0.06c0,0-0.624,0.947-1.802,0
			c0,0-1.435-1.196-2.007-2.505c0,0-0.49-0.921-0.179-1.694c0,0,0.205-0.517,0.568-0.577c0,0,0.07-0.172-0.038-0.284
			c0,0-0.742-0.076-0.885-0.595c0,0-1.062-2.399-1.358-2.769c0,0-1.244-2.076-3.733-2.822c0,0-2.509-0.967-6.505,2.891l-0.056,0.042
			c-4.272,3.838-3.086,6.729-3.086,6.729c0.75,2.489,2.82,3.729,2.82,3.729c0.386,0.284,2.783,1.366,2.783,1.366
			c0.508,0.137,0.593,0.871,0.593,0.871c0.124,0.14,0.282,0.05,0.282,0.05c0.08-0.378,0.574-0.574,0.574-0.574
			c0.781-0.319,1.704,0.172,1.704,0.172c1.309,0.575,2.487,1.996,2.487,1.996c0.964,1.163,0.012,1.809,0.012,1.809
			c-0.045,0.041,0.066,0.222,0.066,0.222c0.95,0.139,1.57,1.767,1.57,1.767c3.602,5.576,7.974,1.238,7.974,1.238l7.108,6.54
			c0,0-0.253,0.199,0.031,0.389c0,0,0.249,0.172,0.227,0.215c0,0-0.531,0.533-0.577,0.55c0,0-0.109,0.046-0.089,0.094
			c0,0-0.072,0.089-0.139,0.045c0,0-0.193-0.224-0.34-0.111c0,0-0.502,0.773-0.186,0.989C78.444,65.301,78.007,65,78.007,65
			s0.404,0.429,0.869-0.085c0,0,0.255-0.147-0.023-0.448c0,0,0.011-0.042,0.062-0.068c0,0,0.12-0.035,0.129-0.164l0.572-0.576
			l0.993,0.85l-0.481,0.476c0,0-0.168,0.033-0.12,0.12c0,0-0.091,0.052-0.116,0.008c-0.043-0.008-0.131-0.18-0.259-0.008
			c0,0-0.436,0.56-0.436,0.655c0,0.249,0.203,0.438,0.415,0.377c0,0,0.396-0.128,0.688-0.464c0,0,0.042-0.052-0.074-0.197
			c0,0-0.076-0.046,0.074-0.087c0,0,0.088-0.042,0.088-0.112l0.006-0.043l0.531-0.509l0.833,0.732c0,0-0.043,0.12-0.097,0.104
			c0,0,0.091,0.24,0.244,0.328c0,0-0.129,0.18-0.153,0.205c0,0-0.015,0.275,0.137,0.216c0.137-0.068-0.013,0.019-0.013,0.019
			s0.021,0.068,0.083,0.068c0.055,0,0.055,0.06,0.055,0.06s0.032,0.05,0.054,0.086c0.015,0.01,0.1,0.172,0.323-0.104l0.299,0.114
			l0.089-0.087c0,0,0.521,0.432,0.633,0.36c0,0,0.074-0.145,0.153-0.155L83.622,66.611z"/>
		<path fill="#FFFFFF" d="M103.141,53.898c0.033-0.068,0.208-0.068,0.208-0.068c0.095-0.087-0.092-0.724-0.092-0.724l0.129-0.06
			v-0.312c0.353-0.085,0.236-0.232,0.228-0.257c-0.012-0.035-0.054-0.088-0.054-0.088s-0.031-0.016-0.031-0.076
			c0.023-0.044-0.035-0.112-0.035-0.112s-0.137,0.131-0.021,0c0.116-0.085-0.146-0.196-0.146-0.196
			c-0.028,0.008-0.228,0.052-0.228,0.052c-0.023-0.175-0.208-0.363-0.208-0.363c-0.008,0.061-0.146,0.061-0.146,0.061l-0.073-0.533
			l0.693-0.268l0.052,0.008c0.048,0.046,0.12-0.024,0.12-0.024c0.107-0.12,0.116-0.025,0.116-0.025
			c0.076,0.173,0.155,0.138,0.155,0.138c0.436-0.138,0.705-0.448,0.705-0.448c0.124-0.172,0.044-0.438-0.187-0.5
			c-0.125-0.041-0.79,0.104-0.79,0.104c-0.201,0.044-0.085,0.199-0.064,0.241c0.009,0.043-0.056,0.104-0.056,0.104
			c-0.068-0.077-0.168,0.07-0.168,0.07l-0.641,0.257l-0.367-1.266l0.763-0.284c0.108,0.041,0.201-0.061,0.201-0.061
			c0.044-0.024,0.094-0.024,0.094-0.024c0.161,0.369,0.095,0.126,0.454-0.044c0.388-0.188,0.491-0.043,0.491-0.043
			s0.133,0.137,0.041-0.432c-0.087-0.55-0.288-0.033-0.626,0.087c-0.153,0.025-0.526-0.275-0.443,0.085
			c0.024,0.087-0.153-0.035-0.212-0.017c-0.058,0.044-0.135,0.044-0.135,0.044c-0.021,0.026-0.736,0.319-0.736,0.319
			c0.031-0.017-0.116-0.784-0.116-0.784c-0.054-0.353-0.281-0.284-0.281-0.284l-2.949-9.286c0,0,5.563-2.186,1.924-7.71
			c0,0-1.235-1.232-0.986-2.153c0,0-0.098-0.172-0.17-0.163c0,0-0.956,0.62-1.653-0.73c0,0-0.819-1.671-0.812-3.092
			c0,0-0.068-1.022,0.532-1.626c0,0,0.388-0.371,0.749-0.284c0,0,0.141-0.12,0.068-0.292c0,0-0.633-0.369-0.56-0.888
			c0,0,0-2.615-0.1-3.104c0,0-0.308-2.393-2.271-4.071c0,0-1.905-1.912-7.125-0.019l-0.056,0.019
			c-5.467,1.763-5.561,4.902-5.561,4.902c-0.331,2.576,1.058,4.546,1.058,4.546c0.23,0.429,1.985,2.36,1.985,2.36
			c0.408,0.353,0.185,1.058,0.185,1.058c0.06,0.162,0.236,0.145,0.236,0.145c0.224-0.292,0.757-0.276,0.757-0.276
			c0.858,0.035,1.503,0.836,1.503,0.836c0.95,1.052,1.454,2.866,1.454,2.866c0.4,1.445-0.722,1.634-0.722,1.634
			c-0.079,0.027-0.027,0.234-0.027,0.234c0.795,0.517,0.712,2.254,0.712,2.254c1.018,6.541,6.781,4.355,6.781,4.355l3.828,8.89
			c0,0-0.313,0.068-0.137,0.361c0,0,0.168,0.259,0.124,0.286c0,0-0.705,0.273-0.74,0.257c0,0-0.129-0.019-0.129,0.068
			c0,0-0.102,0.044-0.13-0.026c0,0-0.094-0.282-0.282-0.232c0,0-0.775,0.49-0.561,0.828c0.297,0.473,0,0.009,0,0.009
			s0.195,0.56,0.847,0.292c0,0,0.282-0.041,0.153-0.423c0,0,0.021-0.042,0.07-0.042c0,0,0.131,0.036,0.203-0.085l0.749-0.304
			l0.568,1.182L100.609,51c0,0-0.158-0.044-0.158,0.043c0,0-0.102,0.027-0.102-0.033c-0.041-0.046-0.041-0.226-0.23-0.114
			c0,0-0.626,0.328-0.659,0.432c-0.107,0.216,0,0.454,0.207,0.5c0,0,0.407,0.043,0.821-0.14c0,0,0.057-0.033,0.013-0.205
			c0,0-0.05-0.068,0.1-0.054c0,0,0.107,0,0.137-0.077l0.013-0.043l0.692-0.238l0.461,1.022c0,0-0.081,0.095-0.129,0.041
			c0,0-0.017,0.27,0.091,0.398c0,0-0.187,0.12-0.215,0.12c0,0-0.121,0.259,0.028,0.259c0.16-0.019-0.012,0-0.012,0
			s-0.009,0.083,0.047,0.11c0.052,0.027,0.023,0.068,0.023,0.068s0.008,0.079,0.017,0.087c0.012,0.033,0.021,0.225,0.327,0.061
			l0.232,0.249l0.129-0.061c0,0,0.279,0.585,0.419,0.585c0,0,0.128-0.094,0.205-0.083L103.141,53.898z"/>
		<path fill="#FFFFFF" d="M126.143,50.23c0.062-0.059,0.224,0,0.224,0c0.12-0.025,0.207-0.68,0.207-0.68h0.137l0.142-0.284
			c0.362,0.042,0.312-0.111,0.303-0.146c0.009-0.05,0-0.11,0-0.11s-0.043-0.027,0-0.07c0.029-0.033,0.009-0.129,0.009-0.129
			s-0.183,0.05-0.028,0c0.145-0.033-0.027-0.249-0.027-0.249c-0.051,0.017-0.254-0.043-0.254-0.043
			c0.054-0.155-0.043-0.404-0.043-0.404c-0.035,0.06-0.158,0-0.158,0l0.158-0.517l0.738,0.033l0.033,0.027
			c0.042,0.06,0.143,0.024,0.143,0.024c0.137-0.068,0.115,0.019,0.115,0.019c0,0.188,0.08,0.188,0.08,0.188
			c0.452,0.05,0.819-0.12,0.819-0.12c0.179-0.093,0.225-0.371,0.032-0.541c-0.09-0.087-0.744-0.234-0.744-0.234
			c-0.225-0.017-0.168,0.155-0.18,0.216c0,0.043-0.097,0.079-0.097,0.079c-0.028-0.096-0.181,0-0.181,0l-0.68-0.061l0.172-1.284
			l0.816,0.044c0.096,0.068,0.217,0.017,0.217,0.017c0.061,0,0.096,0.027,0.096,0.027c-0.021,0.404,0.021,0.155,0.429,0.145
			c0.425-0.017,0.471,0.153,0.471,0.153s0.054,0.191,0.201-0.369c0.151-0.551-0.235-0.145-0.589-0.205
			c-0.168,0-0.375-0.429-0.439-0.087c-0.017,0.087-0.146-0.085-0.193-0.085c-0.082,0-0.15-0.009-0.15-0.009
			c-0.029,0.009-0.809-0.019-0.809-0.019c0.043,0,0.222-0.748,0.222-0.748c0.097-0.361-0.142-0.388-0.142-0.388l1.076-9.708
			c0,0,5.969,0.293,4.907-6.237c0,0-0.633-1.637-0.03-2.36c0,0-0.021-0.197-0.095-0.232c0,0-1.128,0.172-1.204-1.333
			c0,0-0.082-1.86,0.514-3.169c0,0,0.346-0.946,1.137-1.246c0,0,0.518-0.199,0.812,0.025c0,0,0.176-0.042,0.184-0.224
			c0,0-0.436-0.593-0.146-1.049c0,0,1.062-2.401,1.156-2.866c0,0,0.699-2.297-0.421-4.637c0,0-0.96-2.524-6.483-2.928h-0.074
			c-5.711-0.602-7.062,2.223-7.062,2.223c-1.351,2.208-0.882,4.568-0.882,4.568c0.027,0.49,0.854,2.976,0.854,2.976
			c0.224,0.473-0.263,1.051-0.263,1.051c-0.008,0.156,0.153,0.232,0.153,0.232c0.328-0.189,0.81,0.027,0.81,0.027
			c0.763,0.402,1.021,1.375,1.021,1.375c0.439,1.369,0.16,3.21,0.16,3.21c-0.221,1.508-1.312,1.205-1.312,1.205
			c-0.087,0-0.129,0.188-0.129,0.188c0.523,0.811-0.264,2.36-0.264,2.36c-1.733,6.412,4.406,6.746,4.406,6.746l-0.104,9.674
			c0,0-0.312-0.061-0.271,0.284c0,0,0.053,0.303,0,0.319c0,0-0.758-0.061-0.777-0.087c0,0-0.112-0.044-0.151,0.017
			c0,0-0.106,0-0.106-0.077c0,0,0.03-0.301-0.156-0.327c0,0-0.914,0.128-0.854,0.516c0.075,0.561,0,0.02,0,0.02
			s-0.062,0.601,0.651,0.601c0,0,0.272,0.088,0.31-0.319c0,0,0.035-0.024,0.088,0c0,0,0.106,0.079,0.207,0l0.812,0.035l0.033,1.292
			l-0.676-0.024c0,0-0.139-0.104-0.158-0.019c0,0-0.112-0.017-0.092-0.07c-0.021-0.061,0.049-0.23-0.157-0.214
			c0,0-0.712,0.07-0.775,0.131c-0.188,0.172-0.203,0.429-0.021,0.558c0,0,0.365,0.216,0.809,0.183c0,0,0.072,0,0.094-0.175
			c0,0-0.011-0.085,0.118,0c0,0,0.099,0.035,0.149-0.008l0.033-0.044l0.737,0.052l0.005,1.129c0,0-0.123,0.052-0.145,0
			c0,0-0.126,0.224-0.072,0.396c0,0-0.216,0.017-0.26,0.017c0,0-0.213,0.188-0.072,0.249c0.148,0.054,0,0,0,0
			s-0.056,0.07-0.004,0.112c0.021,0.06-0.018,0.087-0.018,0.087s-0.021,0.06-0.024,0.087c0.003,0.025-0.065,0.197,0.282,0.17
			l0.115,0.319l0.129,0.009c0,0,0.021,0.656,0.16,0.706c0,0,0.144-0.042,0.215,0.017h0.072V50.23z"/>
		<path fill="#FFFFFF" d="M148.66,56.213c0.064,0,0.197,0.11,0.197,0.11c0.125,0,0.461-0.542,0.461-0.542l0.123,0.062l0.252-0.216
			c0.301,0.199,0.32,0.009,0.338,0c0.025-0.035,0.037-0.104,0.037-0.104s-0.031-0.026,0.021-0.076c0.042,0,0.063-0.112,0.063-0.112
			s-0.18-0.017-0.014,0c0.139,0.017,0.065-0.24,0.065-0.24c-0.052-0.02-0.211-0.129-0.211-0.129c0.114-0.147,0.124-0.39,0.124-0.39
			c-0.057,0.026-0.149-0.077-0.149-0.077l0.357-0.404l0.676,0.319l0.021,0.044c0,0.058,0.108,0.083,0.108,0.083
			c0.146-0.007,0.09,0.062,0.09,0.062c-0.081,0.173-0.008,0.197-0.008,0.197c0.397,0.234,0.806,0.234,0.806,0.234
			c0.213-0.019,0.364-0.259,0.258-0.458c-0.058-0.129-0.599-0.531-0.599-0.531c-0.187-0.12-0.22,0.068-0.239,0.11
			c-0.012,0.043-0.119,0.026-0.119,0.026c0.016-0.087-0.159-0.087-0.159-0.087l-0.603-0.301l0.678-1.101l0.729,0.353
			c0.046,0.12,0.189,0.12,0.189,0.12c0.043,0,0.064,0.06,0.064,0.06c-0.172,0.369-0.031,0.156,0.344,0.31
			c0.39,0.163,0.367,0.336,0.367,0.336s-0.021,0.181,0.33-0.258c0.363-0.447-0.15-0.251-0.461-0.439
			c-0.143-0.052-0.163-0.541-0.375-0.24c-0.041,0.07-0.076-0.146-0.12-0.172c-0.071-0.027-0.137-0.062-0.137-0.062
			c-0.033,0-0.718-0.353-0.718-0.353c0.029,0.027,0.494-0.593,0.494-0.593c0.231-0.284,0.021-0.405,0.021-0.405l4.933-8.407
			c0,0,5.338,2.677,7.027-3.727c0,0,0.084-1.757,0.936-2.17c0,0,0.062-0.207,0-0.234c0,0-1.104-0.317-0.561-1.721
			c0,0,0.688-1.728,1.758-2.676c0,0,0.697-0.748,1.555-0.688c0,0,0.548,0.027,0.728,0.361c0,0,0.172,0.011,0.25-0.137
			c0,0-0.138-0.714,0.304-1.033c0,0,1.957-1.756,2.223-2.152c0,0,1.572-1.798,1.5-4.405c0,0,0.166-2.688-4.744-5.294l-0.051-0.025
			c-4.984-2.893-7.346-0.86-7.346-0.86c-2.136,1.462-2.679,3.822-2.679,3.822c-0.172,0.465-0.429,3.046-0.429,3.046
			c0.011,0.55-0.668,0.869-0.668,0.869c-0.064,0.137,0.048,0.265,0.048,0.265c0.369-0.043,0.726,0.363,0.726,0.363
			c0.535,0.664,0.367,1.667,0.367,1.667c-0.15,1.439-1.141,3.005-1.141,3.005c-0.813,1.284-1.702,0.561-1.702,0.561
			c-0.084-0.025-0.195,0.12-0.195,0.12c0.142,0.964-1.2,2.055-1.2,2.055c-4.195,5.149,1.293,7.953,1.293,7.953l-4.035,8.798
			c0,0-0.268-0.172-0.366,0.164c0,0-0.083,0.282-0.128,0.266c0,0-0.67-0.353-0.686-0.369c0,0-0.076-0.104-0.129-0.061
			c0,0-0.107-0.043-0.072-0.112c0,0,0.147-0.248-0.021-0.362c0,0-0.875-0.238-0.982,0.131c-0.156,0.532-0.016,0.024-0.016,0.024
			s-0.279,0.508,0.354,0.812c0,0,0.229,0.188,0.418-0.174c0,0,0.043-0.015,0.067,0.046c0,0,0.083,0.102,0.203,0.066l0.728,0.362
			l-0.494,1.203l-0.601-0.299c0,0-0.093-0.139-0.159-0.087c0,0-0.076-0.052-0.041-0.094c0-0.062,0.146-0.189-0.048-0.268
			c0,0-0.687-0.224-0.78-0.198c-0.235,0.07-0.353,0.317-0.246,0.508c0,0,0.262,0.344,0.674,0.5c0,0,0.063,0.043,0.154-0.112
			c0,0,0.03-0.087,0.116,0.024c0,0,0.071,0.088,0.13,0.061l0.041-0.017l0.655,0.347l-0.461,1.03c0,0-0.11,0-0.12-0.068
			c0,0-0.203,0.155-0.224,0.344c0,0-0.203-0.068-0.236-0.093c0,0-0.271,0.085-0.183,0.216c0.139,0.093,0.009-0.035,0.009-0.035
			s-0.077,0.058-0.056,0.128c0,0.044-0.041,0.061-0.041,0.061s-0.041,0.044-0.069,0.06c0,0.044-0.144,0.173,0.196,0.282l-0.021,0.33
			l0.109,0.077c0,0-0.248,0.601-0.142,0.705c0,0,0.142,0.024,0.203,0.085L148.66,56.213z"/>
		<path fill="#FFFFFF" d="M166.785,70.852c0.068,0.027,0.135,0.189,0.135,0.189c0.114,0.068,0.646-0.317,0.646-0.317l0.096,0.104
			l0.314-0.085c0.188,0.299,0.289,0.137,0.311,0.128c0.029-0.019,0.062-0.078,0.062-0.078s-0.009-0.042,0.053-0.042
			c0.043,0.017,0.106-0.087,0.106-0.087s-0.149-0.104-0.018-0.017c0.114,0.077,0.161-0.216,0.161-0.216
			c-0.03-0.008-0.145-0.183-0.145-0.183c0.174-0.074,0.281-0.298,0.281-0.298c-0.064,0.008-0.107-0.123-0.107-0.123l0.48-0.222
			l0.504,0.56l-0.009,0.042c-0.022,0.068,0.073,0.129,0.073,0.129c0.135,0.052,0.047,0.087,0.047,0.087
			c-0.133,0.128-0.09,0.188-0.09,0.188c0.289,0.369,0.645,0.524,0.645,0.524c0.203,0.061,0.432-0.085,0.432-0.325
			c0-0.114-0.324-0.724-0.324-0.724c-0.129-0.173-0.235-0.009-0.291,0.019c-0.008,0.024-0.106-0.019-0.106-0.019
			c0.046-0.087-0.116-0.129-0.116-0.129l-0.427-0.543l1.071-0.749l0.521,0.647c-0.008,0.109,0.129,0.17,0.129,0.17
			c0.033,0.026,0.033,0.104,0.033,0.104c-0.299,0.24-0.073,0.112,0.188,0.413c0.287,0.303,0.203,0.431,0.203,0.431
			s-0.101,0.181,0.401-0.068c0.511-0.275-0.038-0.303-0.235-0.604c-0.117-0.111,0.069-0.56-0.254-0.377
			c-0.064,0.041-0.013-0.155-0.033-0.216c-0.055-0.044-0.104-0.096-0.104-0.096c-0.024,0-0.508-0.618-0.508-0.618
			c0.004,0.042,0.696-0.344,0.696-0.344c0.32-0.147,0.181-0.363,0.181-0.363l7.922-5.68c0,0,3.774,4.631,7.922-0.533
			c0,0,0.806-1.567,1.748-1.628c0,0,0.14-0.129,0.106-0.197c0,0-0.9-0.713,0.174-1.781c0,0,1.324-1.309,2.697-1.739
			c0,0,0.947-0.386,1.703,0.01c0,0,0.488,0.249,0.51,0.618c0,0,0.166,0.089,0.295-0.024c0,0,0.15-0.705,0.676-0.81
			c0,0,2.501-0.816,2.918-1.058c0,0,2.173-1.024,3.171-3.426c0,0,1.244-2.377-2.178-6.773l-0.041-0.061
			c-3.375-4.639-6.365-3.753-6.365-3.753c-2.542,0.473-4.006,2.401-4.006,2.401c-0.345,0.344-1.638,2.616-1.638,2.616
			c-0.209,0.509-0.948,0.509-0.948,0.509c-0.129,0.109-0.065,0.273-0.065,0.273c0.357,0.112,0.518,0.628,0.518,0.628
			c0.217,0.817-0.344,1.672-0.344,1.672c-0.729,1.247-2.265,2.271-2.265,2.271c-1.266,0.851-1.791-0.172-1.791-0.172
			c-0.051-0.041-0.231,0.025-0.231,0.025c-0.25,0.956-1.926,1.396-1.926,1.396c-5.918,3.011-2.062,7.797-2.062,7.797l-7.256,6.369
			c0,0-0.164-0.26-0.4,0c0,0-0.189,0.232-0.224,0.216c0,0-0.462-0.585-0.462-0.631c0,0-0.043-0.12-0.114-0.085
			c0,0-0.073-0.104-0.015-0.164c0,0,0.238-0.153,0.129-0.319c0,0-0.695-0.602-0.948-0.284c-0.367,0.432-0.022,0.02-0.022,0.02
			s-0.466,0.345,0,0.88c0,0,0.125,0.266,0.447,0.008c0,0,0.035,0.017,0.053,0.075c0,0,0.021,0.131,0.148,0.155l0.52,0.622
			l-0.953,0.886l-0.42-0.519c0,0-0.022-0.179-0.097-0.129c0,0-0.065-0.095-0.008-0.109c0.021-0.061,0.209-0.114,0.062-0.276
			c0,0-0.537-0.475-0.629-0.489c-0.252-0.027-0.453,0.146-0.424,0.361c0,0,0.088,0.419,0.402,0.748c0,0,0.042,0.042,0.188-0.06
			c0,0,0.064-0.055,0.086,0.076c0,0,0.043,0.094,0.1,0.094l0.052,0.019l0.45,0.593l-0.833,0.74c0,0-0.108-0.043-0.088-0.111
			c0,0-0.24,0.068-0.345,0.216c0,0-0.162-0.147-0.179-0.173c0,0-0.286-0.043-0.235,0.112c0.072,0.162,0.017-0.009,0.017-0.009
			s-0.104,0-0.116,0.088c-0.009,0.022-0.058,0.022-0.058,0.022s-0.062,0.027-0.095,0.046c-0.008,0.015-0.192,0.085,0.072,0.334
			l-0.152,0.303l0.068,0.109c0,0-0.472,0.432-0.418,0.579c0,0,0.112,0.085,0.15,0.153L166.785,70.852z"/>
		<path fill="#FFFFFF" d="M177.396,91.586c0.045,0.076,0.045,0.231,0.045,0.231c0.076,0.102,0.717-0.017,0.717-0.017l0.043,0.129
			l0.332,0.044c0.045,0.344,0.185,0.257,0.224,0.229c0.033,0.02,0.091-0.024,0.091-0.024s0.019-0.044,0.062-0.017
			c0.021,0.017,0.127-0.042,0.127-0.042s-0.096-0.146,0-0.019c0.089,0.121,0.227-0.111,0.227-0.111
			c-0.024-0.044-0.051-0.241-0.051-0.241c0.18,0,0.373-0.163,0.373-0.163c-0.062-0.027-0.041-0.156-0.041-0.156h0.541l0.221,0.69
			l-0.026,0.059c-0.05,0.044,0.012,0.139,0.012,0.139c0.108,0.102,0.017,0.102,0.017,0.102c-0.187,0.068-0.156,0.147-0.156,0.147
			c0.1,0.43,0.365,0.749,0.365,0.749c0.15,0.128,0.442,0.093,0.534-0.146c0.041-0.114-0.017-0.775-0.017-0.775
			c-0.046-0.216-0.188-0.12-0.268-0.104c-0.022,0-0.092-0.068-0.092-0.068c0.076-0.044-0.053-0.164-0.053-0.164l-0.172-0.67
			l1.279-0.251l0.231,0.809c-0.062,0.104,0.033,0.216,0.033,0.216c0.028,0.024-0.009,0.102-0.009,0.102
			c-0.368,0.087-0.12,0.054,0,0.439c0.148,0.406,0.009,0.491,0.009,0.491s-0.147,0.129,0.396,0.085
			c0.582-0.041,0.094-0.283,0.035-0.628c-0.066-0.129,0.288-0.489-0.07-0.448c-0.08,0.02,0.043-0.145,0.043-0.196
			c-0.03-0.088-0.039-0.164-0.039-0.164c-0.032-0.009-0.225-0.757-0.225-0.757c-0.004,0.043,0.768-0.042,0.768-0.042
			c0.365-0.019,0.324-0.251,0.324-0.251l9.551-1.953c0,0,1.564,5.768,7.449,2.727c0,0,1.381-1.117,2.262-0.773
			c0,0,0.181-0.052,0.17-0.137c0,0-0.516-1.024,0.892-1.576c0,0,1.746-0.645,3.165-0.473c0,0,1.026,0.033,1.561,0.679
			c0,0,0.344,0.431,0.207,0.792c0,0,0.115,0.139,0.279,0.095c0,0,0.438-0.584,0.941-0.456c0,0,2.626,0.26,3.099,0.232
			c0,0,2.402-0.076,4.296-1.858c0,0,2.1-1.669,0.762-7.057l-0.021-0.087c-1.19-5.609-4.28-6.017-4.28-6.017
			c-2.525-0.609-4.629,0.568-4.629,0.568c-0.451,0.172-2.568,1.722-2.568,1.722c-0.396,0.362-1.064,0.087-1.064,0.087
			c-0.17,0.027-0.182,0.197-0.182,0.197c0.281,0.265,0.217,0.792,0.217,0.792c-0.135,0.834-0.988,1.394-0.988,1.394
			c-1.172,0.854-2.99,1.137-2.99,1.137c-1.502,0.275-1.576-0.869-1.576-0.869c-0.021-0.061-0.211-0.061-0.211-0.061
			c-0.614,0.757-2.328,0.473-2.328,0.473c-6.627,0.345-5.051,6.301-5.051,6.301l-9.227,2.874c0,0-0.053-0.301-0.367-0.172
			c0,0-0.273,0.128-0.287,0.104c0,0-0.174-0.74-0.17-0.766c0,0,0.012-0.13-0.062-0.13c0,0-0.027-0.11,0.05-0.146
			c0,0,0.281-0.052,0.244-0.24c0,0-0.402-0.819-0.746-0.646c-0.508,0.224-0.023,0-0.023,0s-0.572,0.129-0.373,0.815
			c0,0,0.019,0.275,0.404,0.174c0,0,0.033,0.027,0.033,0.102c0,0-0.041,0.131,0.066,0.199l0.225,0.766l-1.236,0.439l-0.172-0.653
			c0,0,0.064-0.147-0.039-0.147c0,0-0.005-0.12,0.043-0.12c0.031-0.027,0.236-0.027,0.168-0.224c0,0-0.301-0.664-0.381-0.697
			c-0.217-0.131-0.467-0.035-0.535,0.162c0,0-0.068,0.412,0.08,0.838c0,0,0.012,0.05,0.186,0.041c0,0,0.082-0.041,0.039,0.087
			c0,0,0,0.11,0.057,0.156l0.044,0.014l0.172,0.705l-1.063,0.363c0,0-0.076-0.102-0.033-0.147c0,0-0.244-0.041-0.393,0.054
			c0,0-0.1-0.182-0.107-0.242c0,0-0.236-0.129-0.266,0.019c0.01,0.17,0.028,0,0.028,0s-0.095-0.046-0.142,0.042
			c-0.03,0.008-0.065,0.008-0.065,0.008s-0.071-0.008-0.094-0.008c-0.021,0.008-0.216,0.008-0.076,0.327l-0.267,0.188l0.025,0.156
			c0,0-0.627,0.207-0.627,0.344c0,0,0.079,0.147,0.064,0.216L177.396,91.586z"/>
		<path fill="#FFFFFF" d="M178.652,114.865c0.021,0.061-0.053,0.214-0.053,0.214c0.024,0.147,0.664,0.276,0.664,0.276l-0.021,0.146
			l0.297,0.173c-0.102,0.325,0.064,0.309,0.091,0.303c0.044,0.022,0.104,0.022,0.104,0.022s0.023-0.041,0.062,0
			c0.021,0.026,0.129,0.019,0.129,0.019s-0.029-0.172,0.01-0.019c0.035,0.147,0.271,0,0.271,0c-0.009-0.058,0.043-0.257,0.043-0.257
			c0.168,0.06,0.408,0.019,0.408,0.019c-0.043-0.062,0.021-0.19,0.021-0.19l0.5,0.231l-0.096,0.732l-0.05,0.044
			c-0.058,0.017-0.027,0.109-0.027,0.109c0.056,0.164-0.048,0.121-0.048,0.121c-0.176-0.019-0.191,0.053-0.191,0.053
			c-0.088,0.447,0.03,0.851,0.03,0.851c0.077,0.174,0.364,0.243,0.537,0.07c0.093-0.07,0.31-0.707,0.31-0.707
			c0.049-0.214-0.129-0.197-0.186-0.214c-0.039,0-0.072-0.088-0.072-0.088c0.1-0.023,0.029-0.18,0.029-0.18l0.12-0.681l1.265,0.319
			l-0.129,0.801c-0.095,0.06-0.049,0.205-0.049,0.205c0.006,0.052-0.038,0.087-0.038,0.087c-0.386-0.035-0.149,0.017-0.192,0.413
			c-0.022,0.431-0.192,0.445-0.192,0.445s-0.19,0.045,0.332,0.242c0.545,0.205,0.2-0.216,0.291-0.561
			c0-0.155,0.468-0.325,0.104-0.43c-0.062-0.011,0.111-0.129,0.134-0.175c0-0.067,0.018-0.17,0.018-0.17
			c-0.018,0,0.111-0.774,0.111-0.774c-0.025,0.043,0.717,0.303,0.717,0.303c0.336,0.129,0.398-0.114,0.398-0.114l9.521,2.103
			c0,0-0.917,5.879,5.697,5.498c0,0,1.699-0.453,2.375,0.232c0,0,0.181,0,0.207-0.085c0,0-0.056-1.137,1.459-1.06
			c0,0,1.854,0.127,3.086,0.859c0,0,0.92,0.432,1.145,1.266c0,0,0.137,0.533-0.128,0.793c0,0,0.041,0.18,0.215,0.216
			c0,0,0.646-0.361,1.054-0.044c0,0,2.281,1.316,2.741,1.445c0,0,2.22,0.938,4.664,0.078c0,0,2.599-0.683,3.578-6.152l0.013-0.062
			c1.198-5.617-1.47-7.244-1.47-7.244c-2.049-1.586-4.462-1.377-4.462-1.377c-0.479,0-3.042,0.54-3.042,0.54
			c-0.513,0.19-1.006-0.37-1.006-0.37c-0.185-0.016-0.249,0.131-0.249,0.131c0.152,0.353-0.137,0.8-0.137,0.8
			c-0.455,0.722-1.457,0.878-1.457,0.878c-1.416,0.294-3.196-0.174-3.196-0.174c-1.481-0.368-1.081-1.435-1.081-1.435
			c0-0.069-0.172-0.155-0.172-0.155c-0.881,0.438-2.314-0.492-2.314-0.492c-6.205-2.4-7.175,3.685-7.175,3.685l-9.592-1.126
			c0,0,0.071-0.303-0.274-0.318c0,0-0.3,0.017-0.3-0.01c0,0,0.129-0.748,0.146-0.775c0,0,0.067-0.102,0.004-0.129
			c0,0,0.018-0.119,0.088-0.119c0,0,0.295,0.061,0.338-0.112c0,0-0.021-0.938-0.43-0.904c-0.547,0-0.021,0-0.021,0
			s-0.562-0.128-0.654,0.589c0,0-0.107,0.256,0.293,0.344c0,0,0.014,0.017-0.01,0.067c0,0-0.1,0.103-0.025,0.205l-0.125,0.819
			l-1.299-0.114l0.116-0.659c0,0,0.12-0.131,0.033-0.174c0,0,0.028-0.104,0.078-0.077c0.037-0.011,0.231,0.077,0.231-0.129
			c0,0,0-0.715-0.052-0.782c-0.144-0.217-0.399-0.232-0.548-0.089c0,0-0.236,0.345-0.279,0.802c0,0-0.021,0.061,0.166,0.111
			c0,0,0.082-0.009,0.006,0.104c0,0-0.052,0.104-0.013,0.147l0.022,0.041l-0.131,0.716l-1.121-0.111c0,0-0.035-0.104,0.029-0.131
			c0,0-0.213-0.153-0.396-0.109c0,0,0-0.216,0-0.26c0,0-0.145-0.231-0.236-0.104c-0.061,0.175,0.027,0,0.027,0
			s-0.07-0.041-0.135-0.026c-0.041,0.011-0.064-0.015-0.064-0.015s-0.064-0.019-0.096-0.026c-0.012,0-0.193-0.088-0.193,0.258
			l-0.32,0.087l-0.043,0.128c0,0-0.643-0.041-0.699,0.068c0,0,0.005,0.155-0.037,0.231V114.865L178.652,114.865z"/>
		<path fill="#FFFFFF" d="M170.334,136.622c-0.014,0.069-0.129,0.198-0.129,0.198c-0.042,0.119,0.482,0.509,0.482,0.509
			l-0.072,0.128l0.193,0.273c-0.229,0.26-0.058,0.304-0.027,0.312c0.013,0.044,0.087,0.079,0.087,0.079s0.024-0.046,0.048,0.021
			c0.008,0.027,0.107,0.062,0.107,0.062s0.053-0.172,0.009-0.018c-0.015,0.146,0.259,0.103,0.259,0.103
			c0-0.041,0.146-0.205,0.146-0.205c0.111,0.129,0.373,0.172,0.373,0.172c-0.021-0.067,0.086-0.137,0.086-0.137l0.354,0.386
			l-0.382,0.645h-0.046c-0.062,0-0.083,0.104-0.083,0.104c-0.012,0.153-0.088,0.087-0.088,0.087
			c-0.159-0.087-0.211-0.017-0.211-0.017c-0.24,0.36-0.301,0.772-0.301,0.772c0,0.217,0.231,0.379,0.469,0.275
			c0.115-0.02,0.56-0.5,0.56-0.5c0.138-0.188-0.035-0.23-0.093-0.275c-0.024-0.035-0.016-0.119-0.016-0.119
			c0.086,0.035,0.094-0.153,0.094-0.153l0.382-0.562l1.034,0.793l-0.438,0.705c-0.131,0.006-0.143,0.153-0.143,0.153
			c-0.01,0.062-0.064,0.067-0.064,0.067c-0.34-0.215-0.137-0.049-0.34,0.293c-0.208,0.391-0.374,0.33-0.374,0.33
			s-0.187-0.047,0.212,0.357c0.414,0.424,0.277-0.109,0.502-0.386c0.057-0.155,0.561-0.104,0.262-0.36
			c-0.055-0.044,0.162-0.07,0.189-0.111c0.033-0.043,0.096-0.123,0.096-0.123c-0.016-0.041,0.413-0.67,0.413-0.67
			c-0.048,0,0.524,0.541,0.524,0.541c0.262,0.261,0.417,0.08,0.417,0.08l7.845,5.765c0,0-3.227,5.044,2.971,7.394
			c0,0,1.737,0.26,2.064,1.146c0,0,0.164,0.085,0.221,0.017c0,0,0.416-1.05,1.768-0.378c0,0,1.656,0.869,2.47,2.03
			c0,0,0.668,0.793,0.547,1.626c0,0-0.104,0.544-0.444,0.688c0,0-0.031,0.155,0.113,0.26c0,0,0.73-0.068,0.977,0.403
			c0,0,1.533,2.142,1.899,2.462c0,0,1.675,1.737,4.247,1.938c0,0,2.646,0.429,5.753-4.158l0.041-0.068
			c3.396-4.646,1.611-7.203,1.611-7.203c-1.228-2.271-3.515-3.08-3.515-3.08c-0.424-0.215-3.016-0.731-3.016-0.731
			c-0.516-0.044-0.747-0.757-0.747-0.757c-0.155-0.077-0.292,0.008-0.292,0.008c-0.011,0.389-0.432,0.705-0.432,0.705
			c-0.721,0.465-1.703,0.172-1.703,0.172c-1.412-0.283-2.85-1.42-2.85-1.42c-1.215-0.963-0.402-1.771-0.402-1.771
			c0.029-0.069-0.102-0.215-0.102-0.215c-0.965,0.068-1.906-1.395-1.906-1.395c-4.687-4.689-8.049,0.465-8.049,0.465l-8.312-4.939
			c0,0,0.188-0.242-0.116-0.397c0,0-0.286-0.12-0.271-0.146c0,0,0.422-0.621,0.453-0.637c0,0,0.115-0.07,0.055-0.129
			c0,0,0.062-0.111,0.13-0.052c0,0,0.235,0.155,0.36,0.008c0,0,0.345-0.833-0.022-0.974c-0.519-0.213-0.037-0.017-0.037-0.017
			s-0.46-0.36-0.838,0.249c0,0-0.19,0.217,0.138,0.43c0,0-0.009,0.047-0.039,0.07c0,0-0.145,0.068-0.108,0.197l-0.441,0.68
			l-1.145-0.619l0.364-0.561c0,0,0.172-0.068,0.104-0.146c0,0,0.067-0.084,0.106-0.023c0.047,0,0.184,0.152,0.263-0.027
			c0,0,0.288-0.66,0.274-0.748c-0.031-0.251-0.274-0.388-0.459-0.301c0,0-0.358,0.216-0.592,0.609c0,0-0.042,0.076,0.107,0.172
			c0,0,0.078,0.035-0.033,0.087c0,0-0.083,0.088-0.074,0.147l0.008,0.041l-0.41,0.604l-0.979-0.562c0,0,0-0.11,0.074-0.11
			c0,0-0.137-0.216-0.303-0.259c0,0,0.078-0.189,0.106-0.25c0,0-0.062-0.258-0.187-0.155c-0.112,0.104,0.029,0,0.029,0
			s-0.045-0.103-0.121-0.085c-0.045,0.017-0.055-0.024-0.055-0.024s-0.041-0.079-0.062-0.088c-0.012,0-0.144-0.163-0.281,0.156
			l-0.344-0.044l-0.094,0.104c0,0-0.562-0.316-0.662-0.216c0,0-0.045,0.129-0.129,0.181L170.334,136.622z"/>
		<path fill="#FFFFFF" d="M153.885,153.129c-0.049,0.062-0.199,0.112-0.199,0.112c-0.086,0.12,0.242,0.661,0.242,0.661l-0.123,0.104
			l0.06,0.319c-0.314,0.153-0.166,0.268-0.151,0.282c0,0.045,0.053,0.069,0.053,0.069s0.053,0,0.053,0.077
			c-0.012,0.027,0.055,0.114,0.055,0.114s0.121-0.156,0.014-0.011c-0.068,0.111,0.189,0.175,0.189,0.175
			c0.025-0.046,0.223-0.132,0.223-0.132c0.064,0.181,0.271,0.328,0.271,0.328c0-0.104,0.129-0.114,0.129-0.114l0.168,0.5
			l-0.611,0.432l-0.038-0.011c-0.065-0.016-0.12,0.07-0.12,0.07c-0.065,0.146-0.115,0.043-0.115,0.043
			c-0.116-0.154-0.176-0.104-0.176-0.104c-0.385,0.232-0.601,0.594-0.601,0.594c-0.083,0.18,0.056,0.432,0.308,0.447
			c0.111,0.008,0.726-0.232,0.726-0.232c0.194-0.119,0.061-0.231,0.021-0.318c-0.004-0.016,0.039-0.109,0.039-0.109
			c0.064,0.085,0.151-0.078,0.151-0.078l0.571-0.369l0.627,1.152l-0.696,0.439c-0.116-0.012-0.179,0.102-0.179,0.102
			c-0.035,0.043-0.088,0.026-0.088,0.026c-0.231-0.327-0.104-0.095-0.431,0.129c-0.354,0.274-0.478,0.164-0.478,0.164
			s-0.153-0.104,0.039,0.403c0.214,0.568,0.306,0,0.623-0.146c0.121-0.102,0.547,0.113,0.388-0.216
			c-0.025-0.076,0.17-0.017,0.224-0.017c0.045-0.061,0.12-0.103,0.12-0.103c0-0.011,0.655-0.438,0.655-0.438
			c-0.044,0.008,0.266,0.731,0.266,0.731c0.124,0.344,0.346,0.216,0.346,0.216l4.826,8.483c0,0-5.013,3.278-0.285,7.92
			c0,0,1.473,0.962,1.414,1.927c0,0,0.115,0.128,0.203,0.104c0,0,0.787-0.809,1.77,0.36c0,0,1.146,1.462,1.406,2.877
			c0,0,0.309,0.97-0.164,1.694c0,0-0.301,0.454-0.676,0.447c0,0-0.103,0.129,0,0.268c0,0,0.688,0.247,0.723,0.79
			c0,0,0.541,2.574,0.758,3.015c0,0,0.796,2.254,3.068,3.502c0,0,2.25,1.453,6.955-1.465l0.07-0.033
			c4.98-2.875,4.391-5.946,4.391-5.946c-0.176-2.573-1.963-4.228-1.963-4.228c-0.3-0.359-2.437-1.9-2.437-1.9
			c-0.474-0.241-0.394-0.989-0.394-0.989c-0.101-0.147-0.26-0.12-0.26-0.12c-0.168,0.359-0.685,0.464-0.685,0.464
			c-0.849,0.13-1.632-0.508-1.632-0.508c-1.166-0.86-2.021-2.497-2.021-2.497c-0.713-1.342,0.354-1.771,0.354-1.771
			c0.041-0.025,0-0.238,0-0.238c-0.904-0.34-1.172-2.033-1.172-2.033c-2.392-6.213-7.547-2.857-7.547-2.857l-5.591-7.9
			c0,0,0.275-0.137,0.064-0.412c0,0-0.229-0.199-0.197-0.24c0,0,0.635-0.38,0.666-0.38c0,0,0.131-0.024,0.115-0.112
			c0,0,0.088-0.06,0.139,0c0,0,0.149,0.241,0.313,0.176c0,0,0.668-0.64,0.384-0.924c-0.375-0.42-0.017-0.017-0.017-0.017
			s-0.283-0.5-0.879-0.112c0,0-0.258,0.112-0.049,0.448c0,0-0.029,0.052-0.064,0.068c0,0-0.159,0-0.188,0.11l-0.677,0.465
			l-0.789-1.049l0.567-0.345c0,0,0.188,0,0.152-0.104c0,0,0.092-0.043,0.1,0c0.043,0.026,0.101,0.232,0.267,0.104
			c0,0,0.531-0.491,0.548-0.576c0.068-0.251-0.087-0.467-0.299-0.467c0,0-0.419,0.046-0.794,0.336c0,0-0.062,0.027,0.043,0.19
			c0,0,0.046,0.052-0.087,0.068c0,0-0.107,0.041-0.116,0.102l-0.008,0.027l-0.634,0.403l-0.654-0.912c0,0,0.052-0.11,0.107-0.085
			c0,0-0.024-0.26-0.164-0.345c0,0,0.151-0.155,0.183-0.181c0,0,0.062-0.26-0.082-0.231c-0.153,0.041,0.017,0.017,0.017,0.017
			s-0.009-0.104-0.07-0.129c-0.045-0.019-0.037-0.062-0.037-0.062s-0.008-0.074-0.029-0.103c0,0-0.076-0.188-0.331,0.043
			l-0.288-0.197l-0.119,0.067c0,0-0.389-0.497-0.521-0.473c0,0-0.101,0.129-0.188,0.129L153.885,153.129z"/>
		<path fill="#FFFFFF" d="M132.135,161.527c-0.055,0.026-0.223,0.011-0.223,0.011c-0.122,0.062-0.043,0.705-0.043,0.705
			l-0.149,0.034l-0.071,0.326c-0.369,0-0.272,0.155-0.272,0.198c-0.015,0.036,0.021,0.087,0.021,0.087s0.041,0.032,0.021,0.06
			c-0.021,0.034,0.018,0.129,0.018,0.129s0.166-0.085,0.021,0c-0.124,0.078,0.101,0.259,0.101,0.259
			c0.03-0.043,0.25-0.043,0.25-0.043c-0.027,0.188,0.107,0.404,0.107,0.404c0.048-0.066,0.168-0.045,0.168-0.045l-0.066,0.553
			l-0.713,0.137l-0.048-0.023c-0.028-0.062-0.128,0-0.128,0c-0.105,0.11-0.105-0.018-0.105-0.018
			c-0.055-0.181-0.149-0.156-0.149-0.156c-0.431,0.068-0.769,0.301-0.769,0.301c-0.156,0.132-0.137,0.414,0.103,0.52
			c0.086,0.068,0.754,0.083,0.754,0.083c0.224-0.015,0.147-0.17,0.146-0.257c0-0.025,0.069-0.085,0.069-0.085
			c0.029,0.085,0.183-0.024,0.183-0.024l0.668-0.088l0.092,1.273l-0.805,0.129c-0.101-0.042-0.203,0.02-0.203,0.02
			c-0.041,0.025-0.088-0.02-0.088-0.02c-0.086-0.369-0.062-0.129-0.455-0.025c-0.424,0.104-0.489-0.044-0.489-0.044
			s-0.108-0.172-0.146,0.39c-0.021,0.576,0.283,0.119,0.65,0.104c0.133-0.061,0.439,0.342,0.439-0.044
			c-0.012-0.06,0.142,0.062,0.205,0.067c0.051-0.023,0.137-0.023,0.137-0.023c0.022-0.02,0.791-0.164,0.791-0.164
			c-0.051,0-0.06,0.79-0.06,0.79c-0.013,0.363,0.232,0.347,0.232,0.347l0.954,9.699c0,0-5.906,0.962-3.484,7.143
			c0,0,0.959,1.479,0.518,2.315c0,0,0.052,0.172,0.119,0.172c0,0,1.072-0.403,1.467,1.066c0,0,0.472,1.809,0.14,3.192
			c0,0-0.125,1.018-0.845,1.489c0,0-0.465,0.292-0.805,0.12c0,0-0.133,0.096-0.111,0.268c0,0,0.529,0.489,0.349,0.98
			c0,0-0.552,2.574-0.537,3.062c0,0-0.185,2.42,1.392,4.459c0,0,1.447,2.254,6.936,1.498h0.078c5.725-0.61,6.43-3.643,6.43-3.643
			c0.881-2.443-0.057-4.673-0.057-4.673c-0.146-0.447-1.469-2.722-1.469-2.722c-0.32-0.428,0.049-1.062,0.049-1.062
			c-0.025-0.183-0.199-0.216-0.199-0.216c-0.287,0.257-0.812,0.146-0.812,0.146c-0.821-0.231-1.287-1.137-1.287-1.137
			c-0.705-1.248-0.819-3.09-0.819-3.09c-0.108-1.523,1.045-1.479,1.045-1.479c0.062-0.02,0.092-0.191,0.092-0.191
			c-0.681-0.705-0.239-2.357-0.239-2.357c0.342-6.652-5.734-5.68-5.734-5.68l-1.895-9.477c0,0,0.312-0.023,0.231-0.371
			c0,0-0.12-0.275-0.076-0.291c0,0,0.722-0.094,0.761-0.086c0,0,0.133,0.033,0.145-0.043c0,0,0.098-0.025,0.129,0.06
			c0,0,0.029,0.284,0.213,0.26c0,0,0.867-0.303,0.715-0.683c-0.158-0.521,0-0.023,0-0.023s-0.051-0.578-0.756-0.449
			c0,0-0.279-0.008-0.225,0.391c0,0-0.043,0.033-0.088,0.033c0,0-0.142-0.088-0.213,0.025l-0.797,0.131l-0.301-1.267l0.657-0.087
			c0,0,0.172,0.061,0.181-0.02c0,0,0.1,0,0.096,0.047c0.014,0.033-0.009,0.248,0.194,0.188c0,0,0.685-0.234,0.729-0.303
			c0.168-0.197,0.107-0.454-0.088-0.541c0,0-0.396-0.129-0.856-0.018c0,0-0.065,0-0.047,0.196c0,0,0.034,0.062-0.093,0.035
			c0,0-0.116-0.019-0.145,0l-0.027,0.052l-0.732,0.119l-0.229-1.091c0,0,0.084-0.104,0.127-0.036c0,0,0.082-0.24-0.021-0.396
			c0,0,0.211-0.076,0.255-0.076c0,0,0.161-0.232,0.024-0.275c-0.172,0,0,0.033,0,0.033s0.029-0.083-0.012-0.146
			c-0.035-0.043-0.014-0.06-0.014-0.06s0.021-0.088,0.021-0.094c0-0.019,0.004-0.216-0.319-0.122l-0.192-0.266h-0.131
			c0,0-0.137-0.638-0.277-0.664c0,0-0.138,0.084-0.225,0.043L132.135,161.527z"/>
		<path fill="#FFFFFF" d="M108.873,160.333c-0.081,0-0.216-0.067-0.216-0.067c-0.133,0.008-0.33,0.627-0.33,0.627l-0.151-0.043
			l-0.201,0.275c-0.323-0.155-0.319,0.042-0.323,0.068c-0.022,0.018-0.022,0.103-0.022,0.103s0.026,0.019,0,0.062
			c-0.044,0.008-0.061,0.112-0.061,0.112s0.195,0,0.039,0.017c-0.159,0.025-0.022,0.269-0.022,0.269
			c0.044-0.011,0.259,0.095,0.259,0.095c-0.107,0.139-0.072,0.387-0.072,0.387c0.064-0.061,0.162,0.024,0.162,0.024l-0.27,0.474
			l-0.729-0.153l-0.012-0.06c-0.013-0.062-0.125-0.045-0.125-0.045c-0.143,0.024-0.107-0.061-0.107-0.061
			c0.043-0.172-0.048-0.18-0.048-0.18c-0.428-0.129-0.827-0.062-0.827-0.062c-0.197,0.062-0.295,0.319-0.129,0.517
			c0.058,0.111,0.668,0.377,0.668,0.377c0.203,0.088,0.203-0.119,0.228-0.18c0.011-0.009,0.104-0.035,0.104-0.035
			c0,0.088,0.18,0.035,0.18,0.035l0.653,0.188l-0.46,1.239l-0.782-0.213c-0.062-0.105-0.181-0.088-0.181-0.088
			c-0.06,0.008-0.083-0.026-0.083-0.026c0.073-0.404,0-0.161-0.416-0.222c-0.421-0.097-0.421-0.244-0.421-0.244
			s-0.013-0.213-0.276,0.276c-0.264,0.541,0.201,0.224,0.546,0.371c0.146,0,0.255,0.489,0.414,0.129
			c0.013-0.067,0.118,0.146,0.173,0.163c0.041,0,0.128,0.025,0.128,0.025c0.033-0.025,0.784,0.189,0.784,0.189
			c-0.035-0.019-0.375,0.688-0.375,0.688c-0.164,0.328,0.072,0.388,0.072,0.388l-3.071,9.263c0,0-5.794-1.509-6.08,5.102
			c0,0,0.27,1.74-0.481,2.341c0,0-0.031,0.19,0.033,0.226c0,0,1.157,0.034,0.929,1.549c0,0-0.323,1.842-1.178,2.985
			c0,0-0.535,0.88-1.381,0.999c0,0-0.539,0.086-0.775-0.207c0,0-0.177,0.035-0.225,0.188c0,0,0.293,0.683-0.087,1.067
			c0,0-1.547,2.109-1.733,2.555c0,0-1.137,2.129-0.533,4.632c0,0,0.404,2.651,5.732,4.2l0.063,0.025
			c5.467,1.783,7.35-0.705,7.35-0.705c1.803-1.867,1.848-4.295,1.848-4.295c0.055-0.465-0.224-3.09-0.224-3.09
			c-0.139-0.523,0.473-0.964,0.473-0.964c0.042-0.162-0.087-0.258-0.087-0.258c-0.373,0.129-0.817-0.207-0.817-0.207
			c-0.645-0.533-0.707-1.539-0.707-1.539c-0.128-1.447,0.517-3.177,0.517-3.177c0.504-1.422,1.534-0.922,1.534-0.922
			c0.062,0,0.171-0.154,0.171-0.154c-0.345-0.904,0.744-2.246,0.744-2.246c3.018-5.921-2.924-7.521-2.924-7.521l2.134-9.432
			c0,0,0.286,0.102,0.336-0.225c0,0,0.008-0.303,0.062-0.303c0,0,0.707,0.215,0.719,0.225c0,0,0.116,0.087,0.16,0.035
			c0,0,0.104,0.009,0.104,0.084c0,0-0.104,0.285,0.077,0.361c0,0,0.912,0.07,0.935-0.361c0.055-0.549,0,0,0,0
			s0.188-0.549-0.506-0.724c0,0-0.249-0.129-0.356,0.259c0,0-0.052,0-0.096,0c0,0-0.098-0.127-0.209-0.067l-0.782-0.205l0.236-1.274
			l0.647,0.172c0,0,0.131,0.129,0.174,0.067c0,0,0.079,0.021,0.073,0.062c-0.009,0.062-0.125,0.242,0.089,0.277
			c0,0,0.729,0.066,0.801,0.024c0.215-0.112,0.273-0.388,0.137-0.552c0,0-0.308-0.267-0.775-0.371c0,0-0.075,0-0.123,0.175
			c0,0-0.017,0.067-0.105-0.021c0,0-0.096-0.041-0.139-0.023l-0.052,0.023l-0.697-0.195l0.236-1.112c0,0,0.108-0.024,0.129,0.035
			c0,0,0.159-0.19,0.145-0.36c0,0,0.204,0,0.247,0.027c0,0,0.251-0.141,0.144-0.225c-0.175-0.088-0.013,0.008-0.013,0.008
			s0.062-0.067,0.041-0.139c-0.008-0.018,0.013-0.061,0.013-0.061s0.052-0.061,0.052-0.07c0.023-0.033,0.1-0.189-0.236-0.23
			l-0.06-0.336l-0.116-0.069c0,0,0.124-0.603,0.008-0.687c0,0-0.161-0.02-0.224-0.062h-0.072V160.333z"/>
		<path fill="#FFFFFF" d="M88.094,149.766c-0.075-0.019-0.164-0.146-0.164-0.146c-0.131-0.044-0.568,0.465-0.568,0.465l-0.124-0.121
			l-0.293,0.182c-0.244-0.269-0.303-0.094-0.319-0.061c-0.043,0-0.056,0.068-0.056,0.068s0.013,0.043-0.029,0.043
			c-0.043,0-0.091,0.119-0.091,0.119s0.172,0.043,0.015,0.01c-0.153-0.045-0.118,0.216-0.118,0.216c0.043,0,0.194,0.207,0.194,0.207
			c-0.164,0.067-0.216,0.31-0.216,0.31c0.064,0,0.129,0.12,0.129,0.12l-0.438,0.317l-0.604-0.446v-0.044
			c0.022-0.078-0.077-0.104-0.077-0.104c-0.159-0.024-0.074-0.086-0.074-0.086c0.1-0.146,0.021-0.215,0.021-0.215
			c-0.338-0.285-0.738-0.371-0.738-0.371c-0.194-0.033-0.388,0.174-0.319,0.432c0.009,0.109,0.448,0.604,0.448,0.604
			c0.159,0.153,0.236-0.019,0.288-0.062c0.004-0.017,0.108,0,0.108,0c-0.04,0.077,0.151,0.122,0.151,0.122l0.506,0.43l-0.913,0.945
			l-0.622-0.514c-0.012-0.123-0.137-0.147-0.137-0.147c-0.054-0.017-0.058-0.085-0.058-0.085c0.236-0.319,0.058-0.112-0.278-0.363
			c-0.354-0.24-0.286-0.388-0.286-0.388s0.062-0.197-0.369,0.147c-0.469,0.368,0.077,0.283,0.336,0.543
			c0.137,0.061,0.033,0.567,0.323,0.293c0.038-0.045,0.05,0.17,0.085,0.215c0.052,0.022,0.116,0.103,0.116,0.103
			c0.035-0.019,0.641,0.456,0.641,0.456c-0.028-0.025-0.617,0.491-0.617,0.491c-0.291,0.231-0.108,0.403-0.108,0.403l-6.563,7.187
			c0,0-4.683-3.733-7.629,2.187c0,0-0.448,1.713-1.394,1.938c0,0-0.096,0.164-0.044,0.232c0,0,1.019,0.508,0.205,1.797
			c0,0-1.049,1.541-2.298,2.248c0,0-0.833,0.559-1.658,0.354c0,0-0.527-0.137-0.635-0.518c0,0-0.177-0.043-0.266,0.086
			c0,0-0.021,0.74-0.513,0.953c0,0-2.272,1.293-2.629,1.619c0,0-1.914,1.474-2.379,4.021c0,0-0.707,2.573,3.527,6.161l0.052,0.046
			c4.269,3.838,7.001,2.35,7.001,2.35c2.402-0.967,3.438-3.169,3.438-3.169c0.241-0.404,1.05-2.935,1.05-2.935
			c0.091-0.491,0.827-0.664,0.827-0.664c0.105-0.153,0.021-0.281,0.021-0.281c-0.384-0.026-0.661-0.492-0.661-0.492
			c-0.367-0.792-0.009-1.739-0.009-1.739c0.461-1.351,1.755-2.676,1.755-2.676c1.049-1.103,1.777-0.224,1.777-0.224
			c0.056,0.041,0.22-0.062,0.22-0.062c0.043-0.979,1.593-1.738,1.593-1.738c5.168-4.184,0.379-8.055,0.379-8.055l5.795-7.781
			c0,0,0.215,0.216,0.399-0.061c0,0,0.119-0.266,0.177-0.24c0,0,0.552,0.476,0.568,0.508c0,0,0.07,0.111,0.128,0.086
			c0,0,0.092,0.046,0.048,0.128c0,0-0.196,0.216-0.068,0.347c0,0,0.805,0.438,0.987,0.066c0.29-0.489,0.013-0.016,0.013-0.016
			s0.397-0.412-0.16-0.879c0,0-0.181-0.197-0.439,0.12c0,0-0.052-0.042-0.077-0.077c0,0-0.043-0.137-0.159-0.128l-0.641-0.5
			l0.734-1.067l0.53,0.423c0,0,0.072,0.188,0.129,0.129c0,0,0.062,0.062,0.037,0.085c-0.037,0.044-0.209,0.175-0.021,0.277
			c0,0,0.622,0.354,0.711,0.345c0.245,0,0.409-0.216,0.338-0.423c0,0-0.166-0.389-0.562-0.661c0,0-0.044-0.027-0.172,0.102
			c0,0-0.044,0.07-0.092-0.044c0,0-0.06-0.085-0.107-0.085h-0.061l-0.558-0.473l0.663-0.921c0,0,0.129,0.017,0.11,0.104
			c0,0,0.216-0.122,0.28-0.277c0,0,0.19,0.07,0.22,0.114c0,0,0.277-0.026,0.216-0.155c-0.116-0.147-0.021,0.019-0.021,0.019
			s0.083-0.045,0.106-0.104c-0.019-0.024,0.043-0.062,0.043-0.062s0.064-0.008,0.068-0.041c0.027,0,0.16-0.131-0.13-0.319
			l0.082-0.309l-0.093-0.123c0,0,0.388-0.497,0.297-0.618c0,0-0.138-0.067-0.179-0.137L88.094,149.766z"/>
	</g>
	
		<text transform="matrix(1 0 0 1 17.0889 120.6494)" fill="#FFFFFF" font-family="'ArcherPro-Bold'" font-size="63.6322" letter-spacing="-5">c e l l </text>
	<text transform="matrix(1 0 0 1 123.2871 120.6494)" fill="#FFFFFF" font-family="'ArcherPro-Bold'" font-size="63.6322">i</text>
	<text transform="matrix(0.81 0 0 1 19.8423 141.8711)" fill="#FFFFFF" font-family="'Gotham-ExtraLight'" font-size="21.07">@BERKELEY</text>
</g>
</svg>
