<?xml version="1.0" encoding="utf-8"?>
<!-- Generator: Adobe Illustrator 16.0.0, SVG Export Plug-In . SVG Version: 6.00 Build 0)  -->
<!DOCTYPE svg PUBLIC "-//W3C//DTD SVG 1.1//EN" "http://www.w3.org/Graphics/SVG/1.1/DTD/svg11.dtd">
<svg version="1.1" id="Layer_1" xmlns="http://www.w3.org/2000/svg" xmlns:xlink="http://www.w3.org/1999/xlink" x="0px" y="0px"
	 width="50px" height="50px" viewBox="0 0 50 50" enable-background="new 0 0 50 50" xml:space="preserve">
<path fill-rule="evenodd" clip-rule="evenodd" fill="#F2F2F2" d="M39.6,17.397c0.018,0.313,0.023,0.627,0.023,0.947
	c0,11.936-9.681,21.615-21.616,21.615c-4.206,0-8.139-1.205-11.455-3.281H6.66c4.367,0,8.425-1.295,11.821-3.516
	c-0.16,0.01-0.314,0.016-0.475,0.016c-3.247,0-6.01-2.09-7.009-4.994c0.565,0.137,1.158,0.213,1.764,0.213
	c0.497,0,0.988-0.053,1.456-0.145c-1.376-0.268-2.608-0.918-3.597-1.844c-1.461-1.347-2.374-3.287-2.374-5.434
	c0-0.131,0.006-0.257,0.011-0.388c1.045,0.599,2.25,0.953,3.534,0.976c0.022,0.018,0.046,0.028,0.067,0.04
	c0.006-0.012,0.018-0.022,0.023-0.034c-0.028,0-0.062,0-0.091-0.006c-1.319-0.805-2.363-2.015-2.968-3.453
	c-0.371-0.879-0.577-1.85-0.577-2.865c0-0.052,0-0.108,0.006-0.16c0.022-1.375,0.429-2.653,1.107-3.744
	c0.667,0.828,1.398,1.604,2.187,2.323c0.25,0.234,0.514,0.463,0.781,0.685c1.787,1.49,3.818,2.694,6.027,3.545
	c0.445,0.171,0.891,0.331,1.353,0.474c0.771,0.24,1.564,0.439,2.374,0.594c0.252,0.046,0.503,0.092,0.76,0.131
	c0.645,0.098,1.301,0.172,1.969,0.212c-0.148-0.588-0.229-1.21-0.229-1.844c0-2.603,1.337-4.886,3.362-6.21v-0.006
	c1.165-0.759,2.562-1.204,4.059-1.204c2.111,0,4.023,0.885,5.371,2.312c0.348-0.04,0.816-0.12,1.335-0.24
	c1.107-0.257,2.443-0.719,3.34-1.547c0,0,0.285,2.004-2.757,3.984c0.011,0.058,0.017,0.114,0.028,0.171
	c0.068-0.005,0.148-0.022,0.233-0.034c1.005-0.171,2.935-0.554,3.704-1.124C44.206,12.865,41.397,16.238,39.6,17.397z"/>
</svg>
